<svg xmlns="http://www.w3.org/2000/svg" width="1366" height="768" viewBox="0 0 1366 768"><rect width="1366" height="768" fill="#F5F7FA"/><style>text{font-family:"PingFang SC","Microsoft YaHei","Noto Sans CJK SC",Arial,sans-serif}</style><rect x="0" y="0" width="1366" height="56" rx="0" fill="#FFFFFF"/><line x1="0" y1="56" x2="1366" y2="56" stroke="#E5E7EB" stroke-width="1"/><rect x="20" y="14" width="28" height="28" rx="8" fill="#2563EB"/><text x="34" y="34" font-size="16" fill="#fff" font-weight="700" text-anchor="middle">C</text><text x="58" y="35" font-size="17" fill="#1F2937" font-weight="700" text-anchor="start">CoffeeLink</text><text x="215" y="35" font-size="14" fill="#64748B" font-weight="400" text-anchor="start">/</text><text x="232" y="35" font-size="14" fill="#64748B" font-weight="500" text-anchor="start">客户经营 / 客户成功</text><rect x="1010" y="12" width="240" height="32" rx="8" fill="#F8FAFC" stroke="#E5E7EB" stroke-width="1"/><text x="1024" y="33" font-size="13" fill="#1F2937" font-weight="500" text-anchor="start">上海咖啡运营有限公司</text><rect x="1260" y="15" width="82" height="26" rx="13" fill="#F1F5F9"/><text x="1301" y="33" font-size="12" fill="#475569" font-weight="600" text-anchor="middle">企业管理员</text><rect x="0" y="56" width="200" height="712" rx="0" fill="#F8FAFC"/><line x1="200" y1="56" x2="200" y2="768" stroke="#E5E7EB" stroke-width="1"/><rect x="24" y="73" width="18" height="18" rx="5" fill="#CBD5E1"/><text x="52" y="87" font-size="14" fill="#475569" font-weight="500" text-anchor="start">工作台</text><rect x="16" y="115" width="168" height="40" rx="10" fill="#EFF6FF"/><rect x="24" y="125" width="18" height="18" rx="5" fill="#2563EB"/><text x="52" y="139" font-size="14" fill="#2563EB" font-weight="650" text-anchor="start">客户经营</text><rect x="24" y="177" width="18" height="18" rx="5" fill="#CBD5E1"/><text x="52" y="191" font-size="14" fill="#475569" font-weight="500" text-anchor="start">租赁运营</text><rect x="24" y="229" width="18" height="18" rx="5" fill="#CBD5E1"/><text x="52" y="243" font-size="14" fill="#475569" font-weight="500" text-anchor="start">设备运营</text><rect x="24" y="281" width="18" height="18" rx="5" fill="#CBD5E1"/><text x="52" y="295" font-size="14" fill="#475569" font-weight="500" text-anchor="start">经营管理</text><rect x="24" y="333" width="18" height="18" rx="5" fill="#CBD5E1"/><text x="52" y="347" font-size="14" fill="#475569" font-weight="500" text-anchor="start">企业中心</text><rect x="24" y="385" width="18" height="18" rx="5" fill="#CBD5E1"/><text x="52" y="399" font-size="14" fill="#475569" font-weight="500" text-anchor="start">平台管理</text><rect x="24" y="437" width="18" height="18" rx="5" fill="#CBD5E1"/><text x="52" y="451" font-size="14" fill="#475569" font-weight="500" text-anchor="start">系统设置</text><rect x="16" y="680" width="168" height="54" rx="12" fill="#EEF4FF"/><text x="28" y="702" font-size="12" fill="#2563EB" font-weight="650" text-anchor="start">CoffeeLink</text><text x="28" y="720" font-size="11" fill="#64748B" font-weight="400" text-anchor="start">让每个点位更可经营</text><text x="232" y="98" font-size="24" fill="#1F2937" font-weight="700" text-anchor="start">客户健康</text><text x="232" y="122" font-size="13" fill="#64748B" font-weight="400" text-anchor="start">用可解释原因识别风险，而不是一个黑盒分数</text><rect x="232" y="145" width="193" height="90" rx="12" fill="#FFFFFF" stroke="#E5E7EB" stroke-width="1"/><text x="248" y="170" font-size="12" fill="#64748B" font-weight="500" text-anchor="start">健康</text><text x="248" y="202" font-size="26" fill="#1F2937" font-weight="700" text-anchor="start">68</text><text x="409" y="201" font-size="12" fill="#059669" font-weight="600" text-anchor="end">稳定</text><rect x="445" y="145" width="193" height="90" rx="12" fill="#FFFFFF" stroke="#E5E7EB" stroke-width="1"/><text x="461" y="170" font-size="12" fill="#64748B" font-weight="500" text-anchor="start">关注</text><text x="461" y="202" font-size="26" fill="#1F2937" font-weight="700" text-anchor="start">12</text><text x="622" y="201" font-size="12" fill="#D97706" font-weight="600" text-anchor="end">+2</text><rect x="658" y="145" width="193" height="90" rx="12" fill="#FFFFFF" stroke="#E5E7EB" stroke-width="1"/><text x="674" y="170" font-size="12" fill="#64748B" font-weight="500" text-anchor="start">风险</text><text x="674" y="202" font-size="26" fill="#1F2937" font-weight="700" text-anchor="start">5</text><text x="835" y="201" font-size="12" fill="#DC2626" font-weight="600" text-anchor="end">+1</text><rect x="871" y="145" width="193" height="90" rx="12" fill="#FFFFFF" stroke="#E5E7EB" stroke-width="1"/><text x="887" y="170" font-size="12" fill="#64748B" font-weight="500" text-anchor="start">未知</text><text x="887" y="202" font-size="26" fill="#1F2937" font-weight="700" text-anchor="start">2</text><text x="1048" y="201" font-size="12" fill="#64748B" font-weight="600" text-anchor="end">数据不足</text><rect x="232" y="250" width="1102" height="58" rx="12" fill="#FFFFFF" stroke="#E5E7EB" stroke-width="1"/><text x="250" y="285" font-size="12" fill="#1F2937" font-weight="500" text-anchor="start">健康状态：全部</text><text x="398" y="285" font-size="12" fill="#1F2937" font-weight="500" text-anchor="start">负责人：全部</text><text x="540" y="285" font-size="12" fill="#1F2937" font-weight="500" text-anchor="start">续租：90 天内</text><text x="690" y="285" font-size="12" fill="#1F2937" font-weight="500" text-anchor="start">数据完整性：全部</text><rect x="1216" y="262" width="88" height="34" rx="8" fill="#2563EB"/><text x="1260" y="284" font-size="13" fill="#fff" font-weight="600" text-anchor="middle">查询</text><rect x="232" y="326" width="760" height="330" rx="12" fill="#FFFFFF" stroke="#E5E7EB" stroke-width="1"/><rect x="232" y="326" width="760" height="38" rx="12" fill="#F8FAFC"/><rect x="232" y="354" width="760" height="10" rx="0" fill="#F8FAFC"/><text x="244" y="351" font-size="12" fill="#64748B" font-weight="600" text-anchor="start">客户</text><text x="404" y="351" font-size="12" fill="#64748B" font-weight="600" text-anchor="start">状态</text><text x="482" y="351" font-size="12" fill="#64748B" font-weight="600" text-anchor="start">主要原因</text><text x="622" y="351" font-size="12" fill="#64748B" font-weight="600" text-anchor="start">影响范围</text><text x="767" y="351" font-size="12" fill="#64748B" font-weight="600" text-anchor="start">负责人</text><text x="867" y="351" font-size="12" fill="#64748B" font-weight="600" text-anchor="start">续租</text><text x="244" y="405.5" font-size="12" fill="#1F2937" font-weight="500" text-anchor="start">CoffeeHub 徐汇</text><rect x="402" y="374" width="50" height="26" rx="13" fill="#FEF2F2"/><text x="427" y="392" font-size="12" fill="#DC2626" font-weight="600" text-anchor="middle">风险</text><text x="482" y="405.5" font-size="12" fill="#1F2937" font-weight="500" text-anchor="start">设备不稳定</text><text x="622" y="405.5" font-size="12" fill="#1F2937" font-weight="500" text-anchor="start">2 点位 / 3 设备</text><text x="767" y="405.5" font-size="12" fill="#1F2937" font-weight="500" text-anchor="start">王琳</text><text x="867" y="405.5" font-size="12" fill="#1F2937" font-weight="500" text-anchor="start">14 天</text><line x1="232" y1="437" x2="992" y2="437" stroke="#E5E7EB" stroke-width="1"/><text x="244" y="478.5" font-size="12" fill="#1F2937" font-weight="500" text-anchor="start">星云科技</text><rect x="402" y="447" width="50" height="26" rx="13" fill="#FFFBEB"/><text x="427" y="465" font-size="12" fill="#D97706" font-weight="600" text-anchor="middle">关注</text><text x="482" y="478.5" font-size="12" fill="#1F2937" font-weight="500" text-anchor="start">使用下降</text><text x="622" y="478.5" font-size="12" fill="#1F2937" font-weight="500" text-anchor="start">5 点位</text><text x="767" y="478.5" font-size="12" fill="#1F2937" font-weight="500" text-anchor="start">陈乔</text><text x="867" y="478.5" font-size="12" fill="#1F2937" font-weight="500" text-anchor="start">58 天</text><line x1="232" y1="510" x2="992" y2="510" stroke="#E5E7EB" stroke-width="1"/><text x="244" y="551.5" font-size="12" fill="#1F2937" font-weight="500" text-anchor="start">BlueCup</text><rect x="402" y="520" width="50" height="26" rx="13" fill="#ECFDF5"/><text x="427" y="538" font-size="12" fill="#059669" font-weight="600" text-anchor="middle">健康</text><text x="482" y="551.5" font-size="12" fill="#1F2937" font-weight="500" text-anchor="start">—</text><text x="622" y="551.5" font-size="12" fill="#1F2937" font-weight="500" text-anchor="start">8 点位</text><text x="767" y="551.5" font-size="12" fill="#1F2937" font-weight="500" text-anchor="start">赵敏</text><text x="867" y="551.5" font-size="12" fill="#1F2937" font-weight="500" text-anchor="start">120 天</text><line x1="232" y1="583" x2="992" y2="583" stroke="#E5E7EB" stroke-width="1"/><text x="244" y="624.5" font-size="12" fill="#1F2937" font-weight="500" text-anchor="start">远景办公</text><rect x="402" y="593" width="50" height="26" rx="13" fill="#F1F5F9"/><text x="427" y="611" font-size="12" fill="#475569" font-weight="600" text-anchor="middle">未知</text><text x="482" y="624.5" font-size="12" fill="#1F2937" font-weight="500" text-anchor="start">数据缺失</text><text x="622" y="624.5" font-size="12" fill="#1F2937" font-weight="500" text-anchor="start">1 点位</text><text x="767" y="624.5" font-size="12" fill="#1F2937" font-weight="500" text-anchor="start">王琳</text><text x="867" y="624.5" font-size="12" fill="#1F2937" font-weight="500" text-anchor="start">—</text><rect x="1010" y="326" width="324" height="394" rx="14" fill="#FFFFFF" stroke="#E5E7EB" stroke-width="1"/><text x="1030" y="358" font-size="15" fill="#1F2937" font-weight="650" text-anchor="start">CoffeeHub 徐汇</text><text x="1030" y="378" font-size="11" fill="#64748B" font-weight="400" text-anchor="start">风险原因与下一步</text><rect x="1240" y="340" width="64" height="26" rx="13" fill="#FEF2F2"/><text x="1272" y="358" font-size="12" fill="#DC2626" font-weight="600" text-anchor="middle">RISK</text><text x="1030" y="396" font-size="12" fill="#64748B" font-weight="600" text-anchor="start">主要原因</text><rect x="1030" y="410" width="106" height="26" rx="13" fill="#FEF2F2"/><text x="1083" y="428" font-size="12" fill="#DC2626" font-weight="600" text-anchor="middle">设备连续离线</text><rect x="1146" y="410" width="104" height="26" rx="13" fill="#FFFBEB"/><text x="1198" y="428" font-size="12" fill="#D97706" font-weight="600" text-anchor="middle">出杯下降 18%</text><text x="1030" y="458" font-size="12" fill="#64748B" font-weight="600" text-anchor="start">维度</text><text x="1030" y="484" font-size="12" fill="#1F2937" font-weight="500" text-anchor="start">设备稳定</text><rect x="1115" y="472" width="120" height="8" rx="4" fill="#E2E8F0"/><rect x="1115" y="472" width="50.4" height="8" rx="4" fill="#DC2626"/><text x="1278" y="484" font-size="11" fill="#64748B" font-weight="600" text-anchor="end">42%</text><text x="1030" y="516" font-size="12" fill="#1F2937" font-weight="500" text-anchor="start">经营表现</text><rect x="1115" y="504" width="120" height="8" rx="4" fill="#E2E8F0"/><rect x="1115" y="504" width="81.6" height="8" rx="4" fill="#D97706"/><text x="1278" y="516" font-size="11" fill="#64748B" font-weight="600" text-anchor="end">68%</text><text x="1030" y="548" font-size="12" fill="#1F2937" font-weight="500" text-anchor="start">产品采用</text><rect x="1115" y="536" width="120" height="8" rx="4" fill="#E2E8F0"/><rect x="1115" y="536" width="103.2" height="8" rx="4" fill="#059669"/><text x="1278" y="548" font-size="11" fill="#64748B" font-weight="600" text-anchor="end">86%</text><text x="1030" y="592" font-size="12" fill="#64748B" font-weight="600" text-anchor="start">建议动作</text><rect x="1030" y="608" width="118" height="34" rx="8" fill="#2563EB"/><text x="1089" y="630" font-size="13" fill="#fff" font-weight="600" text-anchor="middle">查看设备异常</text><rect x="1158" y="608" width="96" height="34" rx="8" fill="#FFFFFF" stroke="#E5E7EB" stroke-width="1"/><text x="1206" y="630" font-size="13" fill="#1F2937" font-weight="600" text-anchor="middle">创建跟进</text><text x="1030" y="674" font-size="10" fill="#64748B" font-weight="400" text-anchor="start">Freshness：4 分钟前 · Coverage 83%</text></svg>