<svg xmlns="http://www.w3.org/2000/svg" width="1366" height="768" viewBox="0 0 1366 768"><rect width="1366" height="768" fill="#F5F7FA"/><style>text{font-family:"PingFang SC","Microsoft YaHei","Noto Sans CJK SC",Arial,sans-serif}</style><rect x="0" y="0" width="1366" height="56" rx="0" fill="#FFFFFF"/><line x1="0" y1="56" x2="1366" y2="56" stroke="#E5E7EB" stroke-width="1"/><rect x="20" y="14" width="28" height="28" rx="8" fill="#2563EB"/><text x="34" y="34" font-size="16" fill="#fff" font-weight="700" text-anchor="middle">C</text><text x="58" y="35" font-size="17" fill="#1F2937" font-weight="700" text-anchor="start">CoffeeLink</text><text x="215" y="35" font-size="14" fill="#64748B" font-weight="400" text-anchor="start">/</text><text x="232" y="35" font-size="14" fill="#64748B" font-weight="500" text-anchor="start">经营管理 / 经营分析</text><rect x="1010" y="12" width="240" height="32" rx="8" fill="#F8FAFC" stroke="#E5E7EB" stroke-width="1"/><text x="1024" y="33" font-size="13" fill="#1F2937" font-weight="500" text-anchor="start">上海咖啡运营有限公司</text><rect x="1260" y="15" width="82" height="26" rx="13" fill="#F1F5F9"/><text x="1301" y="33" font-size="12" fill="#475569" font-weight="600" text-anchor="middle">企业管理员</text><rect x="0" y="56" width="200" height="712" rx="0" fill="#F8FAFC"/><line x1="200" y1="56" x2="200" y2="768" stroke="#E5E7EB" stroke-width="1"/><rect x="24" y="73" width="18" height="18" rx="5" fill="#CBD5E1"/><text x="52" y="87" font-size="14" fill="#475569" font-weight="500" text-anchor="start">工作台</text><rect x="24" y="125" width="18" height="18" rx="5" fill="#CBD5E1"/><text x="52" y="139" font-size="14" fill="#475569" font-weight="500" text-anchor="start">客户经营</text><rect x="24" y="177" width="18" height="18" rx="5" fill="#CBD5E1"/><text x="52" y="191" font-size="14" fill="#475569" font-weight="500" text-anchor="start">租赁运营</text><rect x="24" y="229" width="18" height="18" rx="5" fill="#CBD5E1"/><text x="52" y="243" font-size="14" fill="#475569" font-weight="500" text-anchor="start">设备运营</text><rect x="16" y="271" width="168" height="40" rx="10" fill="#EFF6FF"/><rect x="24" y="281" width="18" height="18" rx="5" fill="#2563EB"/><text x="52" y="295" font-size="14" fill="#2563EB" font-weight="650" text-anchor="start">经营管理</text><rect x="24" y="333" width="18" height="18" rx="5" fill="#CBD5E1"/><text x="52" y="347" font-size="14" fill="#475569" font-weight="500" text-anchor="start">企业中心</text><rect x="24" y="385" width="18" height="18" rx="5" fill="#CBD5E1"/><text x="52" y="399" font-size="14" fill="#475569" font-weight="500" text-anchor="start">平台管理</text><rect x="24" y="437" width="18" height="18" rx="5" fill="#CBD5E1"/><text x="52" y="451" font-size="14" fill="#475569" font-weight="500" text-anchor="start">系统设置</text><rect x="16" y="680" width="168" height="54" rx="12" fill="#EEF4FF"/><text x="28" y="702" font-size="12" fill="#2563EB" font-weight="650" text-anchor="start">CoffeeLink</text><text x="28" y="720" font-size="11" fill="#64748B" font-weight="400" text-anchor="start">让每个点位更可经营</text><text x="232" y="98" font-size="24" fill="#1F2937" font-weight="700" text-anchor="start">营销经营分析</text><text x="232" y="122" font-size="13" fill="#64748B" font-weight="400" text-anchor="start">成功杯、费用、收入和归因方法分开呈现</text><rect x="232" y="145" width="235" height="90" rx="12" fill="#FFFFFF" stroke="#E5E7EB" stroke-width="1"/><text x="248" y="170" font-size="12" fill="#64748B" font-weight="500" text-anchor="start">成功杯</text><text x="248" y="202" font-size="26" fill="#1F2937" font-weight="700" text-anchor="start">326</text><text x="451" y="201" font-size="12" fill="#059669" font-weight="600" text-anchor="end">+18%</text><rect x="487" y="145" width="235" height="90" rx="12" fill="#FFFFFF" stroke="#E5E7EB" stroke-width="1"/><text x="503" y="170" font-size="12" fill="#64748B" font-weight="500" text-anchor="start">营销费用</text><text x="503" y="202" font-size="26" fill="#1F2937" font-weight="700" text-anchor="start">¥489</text><text x="706" y="201" font-size="12" fill="#2563EB" font-weight="600" text-anchor="end">已计量</text><rect x="742" y="145" width="235" height="90" rx="12" fill="#FFFFFF" stroke="#E5E7EB" stroke-width="1"/><text x="758" y="170" font-size="12" fill="#64748B" font-weight="500" text-anchor="start">每成功杯成本</text><text x="758" y="202" font-size="26" fill="#1F2937" font-weight="700" text-anchor="start">¥1.50</text><text x="961" y="201" font-size="12" fill="#059669" font-weight="600" text-anchor="end">可核验</text><rect x="997" y="145" width="235" height="90" rx="12" fill="#FFFFFF" stroke="#E5E7EB" stroke-width="1"/><text x="1013" y="170" font-size="12" fill="#64748B" font-weight="500" text-anchor="start">直接归因收入</text><text x="1013" y="202" font-size="26" fill="#1F2937" font-weight="700" text-anchor="start">¥2,870</text><text x="1216" y="201" font-size="12" fill="#D97706" font-weight="600" text-anchor="end">非增量收益</text><rect x="232" y="258" width="560" height="300" rx="12" fill="#FFFFFF" stroke="#E5E7EB" stroke-width="1"/><text x="252" y="290" font-size="15" fill="#1F2937" font-weight="650" text-anchor="start">活动漏斗</text><text x="252" y="310" font-size="11" fill="#64748B" font-weight="400" text-anchor="start">仅显示有真实来源的节点</text><text x="252" y="338" font-size="11" fill="#1F2937" font-weight="600" text-anchor="start">活动触发</text><rect x="334" y="322" width="380" height="22" rx="6" fill="#EEF2F7"/><rect x="334" y="322" width="380" height="22" rx="6" fill="#2563EB"/><text x="758" y="338" font-size="11" fill="#475569" font-weight="600" text-anchor="end">1240</text><text x="252" y="376" font-size="11" fill="#1F2937" font-weight="600" text-anchor="start">领取/受理</text><rect x="334" y="360" width="380" height="22" rx="6" fill="#EEF2F7"/><rect x="334" y="360" width="281.2" height="22" rx="6" fill="#2563EB"/><text x="758" y="376" font-size="11" fill="#475569" font-weight="600" text-anchor="end">920</text><text x="252" y="414" font-size="11" fill="#1F2937" font-weight="600" text-anchor="start">核销</text><rect x="334" y="398" width="380" height="22" rx="6" fill="#EEF2F7"/><rect x="334" y="398" width="155.8" height="22" rx="6" fill="#2563EB"/><text x="758" y="414" font-size="11" fill="#475569" font-weight="600" text-anchor="end">512</text><text x="252" y="452" font-size="11" fill="#1F2937" font-weight="600" text-anchor="start">成功杯</text><rect x="334" y="436" width="380" height="22" rx="6" fill="#EEF2F7"/><rect x="334" y="436" width="98.8" height="22" rx="6" fill="#059669"/><text x="758" y="452" font-size="11" fill="#475569" font-weight="600" text-anchor="end">326</text><text x="252" y="490" font-size="11" fill="#1F2937" font-weight="600" text-anchor="start">已计费</text><rect x="334" y="474" width="380" height="22" rx="6" fill="#EEF2F7"/><rect x="334" y="474" width="98.8" height="22" rx="6" fill="#2563EB"/><text x="758" y="490" font-size="11" fill="#475569" font-weight="600" text-anchor="end">326</text><text x="252" y="528" font-size="11" fill="#1F2937" font-weight="600" text-anchor="start">已收款</text><rect x="334" y="512" width="380" height="22" rx="6" fill="#EEF2F7"/><rect x="334" y="512" width="87.4" height="22" rx="6" fill="#2563EB"/><text x="758" y="528" font-size="11" fill="#475569" font-weight="600" text-anchor="end">280</text><rect x="812" y="258" width="522" height="300" rx="12" fill="#FFFFFF" stroke="#E5E7EB" stroke-width="1"/><text x="832" y="290" font-size="15" fill="#1F2937" font-weight="650" text-anchor="start">成功杯 / 费用趋势</text><text x="832" y="310" font-size="11" fill="#64748B" font-weight="400" text-anchor="start">09/01—09/22</text><line x1="850" y1="494" x2="1296" y2="494" stroke="#CBD5E1" stroke-width="1"/><polyline points="862.0,456.0 903.0,440.3 944.0,445.6 985.0,414.3 1026.0,429.9 1067.0,393.4 1108.0,403.8 1149.0,367.3 1190.0,372.5 1231.0,351.7 1272.0,336.0" fill="none" stroke="#059669" stroke-width="2.2" stroke-linecap="round" stroke-linejoin="round"/><polyline points="862.0,455.0 903.0,445.5 944.0,436.0 985.0,426.5 1026.0,436.0 1067.0,407.5 1108.0,398.0 1149.0,388.5 1190.0,379.0 1231.0,369.5 1272.0,360.0" fill="none" stroke="#2563EB" stroke-width="2.2" stroke-linecap="round" stroke-linejoin="round"/><rect x="832" y="512" width="66" height="26" rx="13" fill="#ECFDF5"/><text x="865" y="530" font-size="12" fill="#059669" font-weight="600" text-anchor="middle">成功杯</text><rect x="908" y="512" width="54" height="26" rx="13" fill="#EFF6FF"/><text x="935" y="530" font-size="12" fill="#2563EB" font-weight="600" text-anchor="middle">费用</text><rect x="232" y="580" width="1102" height="140" rx="12" fill="#FFFFFF" stroke="#E5E7EB" stroke-width="1"/><text x="252" y="610" font-size="15" fill="#1F2937" font-weight="650" text-anchor="start">归因说明</text><text x="252" y="630" font-size="11" fill="#64748B" font-weight="400" text-anchor="start">当前方法：Deterministic Direct Binding</text><rect x="252" y="628" width="70" height="26" rx="13" fill="#EFF6FF"/><text x="287" y="646" font-size="12" fill="#2563EB" font-weight="600" text-anchor="middle">DIRECT</text><text x="336" y="647" font-size="11" fill="#1F2937" font-weight="400" text-anchor="start">收入只统计与活动存在可信绑定的订单/支付事实。</text><text x="336" y="670" font-size="11" fill="#D97706" font-weight="600" text-anchor="start">当前没有 Holdout / Experiment，因此不声明“增量提升”或因果 ROI。</text><text x="1110" y="646" font-size="10" fill="#64748B" font-weight="400" text-anchor="start">Freshness</text><text x="1294" y="646" font-size="11" fill="#1F2937" font-weight="600" text-anchor="end">5 分钟前</text><text x="1110" y="674" font-size="10" fill="#64748B" font-weight="400" text-anchor="start">Coverage</text><text x="1294" y="674" font-size="11" fill="#1F2937" font-weight="600" text-anchor="end">88%</text></svg>